<?xml version="1.0" encoding="utf-8"?>
<!-- Generator: Adobe Illustrator 17.1.0, SVG Export Plug-In . SVG Version: 6.00 Build 0)  -->
<!DOCTYPE svg PUBLIC "-//W3C//DTD SVG 1.1//EN" "http://www.w3.org/Graphics/SVG/1.1/DTD/svg11.dtd">
<svg version="1.1" id="Layer_1" xmlns="http://www.w3.org/2000/svg" xmlns:xlink="http://www.w3.org/1999/xlink" x="0px" y="0px"
	 viewBox="0 0 620 250" enable-background="new 0 0 620 250" xml:space="preserve">
<g>
	<path fill="#FFFFFF" d="M123.3,71.7c-3.2,4-6.3,7.7-9.5,11.6c-2.1,2.8-2.3,5.6-4,8.8l-7.4,14.9c-4.2,9.1-7.9,18.2-11.6,27.3
		c-1.9,4.7-4.5,9.5-5.8,14.4c-1.2,4.4-2.3,8.8-4.2,13.3c-6.6,16.3-12.8,33.1-23.6,47.1c-2.4,3.3-5.1,6-9.6,6c-4.4,0-9.1-1.4-13-3.5
		c-8.6-4.7-13.1-14-15.4-23.1c-2.4-9.6-3.1-19.6-2.6-29.4c0.2-2.3-1.8-15.9,0.7-16.8c2.8-0.9,3.5,4.6,3.9,6.3
		c1.2,10,2.3,19.6,4.9,29.2c1.4,4.9,3,10,4.9,14.7c1.2,3.3,3,8.2,6.5,10c6.8,3.7,12.3-9.6,14.4-14c9.3-18.5,16.1-38.3,23.3-57.8
		c6.8-18.6,13.5-38.2,24.2-55.1c-4.9,1.9-9.6,2.6-14.5,4c-4.4,1.2-8.6,3.5-13,4.7c-5.6,1.6-18,3.9-20,10.3c-0.9,3.3,1.9,7.2,3.9,9.6
		c1,1.4,6.5,5.4,4.9,7.4c-0.2,0.4-3.1,1.4-3.3,1.4c-3.1,0.2-7-2.8-9.3-4.9l-3.7-3.3c-1.6-1.2-3-1.9-4-4c-0.9-1.6-1.6-3-1.6-4.7
		c0.4-6.1,5.8-7.7,10.2-10c6.5-3.3,14.5-4.9,22.1-7c2.3-0.7,3.5-1.8,5.6-2.6c3.5-1.6,7.5-2.3,11-3.3c4.9-1.6,9.8-3,14.7-4.4
		c2.1-0.7,1.4,0,3.1-1.6c1.1-0.9,1.8-2.5,2.3-3c3.5-4,16.5-3.5,17.3,3.3C125.2,69,124.2,70.4,123.3,71.7z M95.6,106
		c-2.1,4.2-4.2,8.2-5.8,12.6l-11,28.9c3-7.7,6.7-14,10-21.5C91.6,120,93,112.1,95.6,106z"/>
	<path fill="#FFFFFF" d="M164.2,153.9c-0.4,0-2.6,0.7-2.5,0.5c-1.8,0.7-1.4,0.5-2.6,2.1c-1.4,2.1-2.6,4.4-3.9,6.5
		c-0.7,0.7-7,10-8.2,9.5c0,0,1.4-1.8,1.2-1.9l-5.1,6c0.5-0.5,0.9-0.7,0.9-0.5c-1,3-6.8,6.5-9.5,8.4c-2.8,2.1-6.3,4-10,4.5
		c-3.5,0.4-7.4-0.4-10.7-1.9c-10.3-5.1-16.5-19.1-10.9-29.8c3-5.6,5.1-11.9,9.3-17.5c2.5-3,5.1-6,8.4-8c1.4-1.1,3-1.9,4.7-2.6
		c1.2-0.7,3.9-0.9,4.7-1.6c1-0.7,2.1-5.3,2.8-6.7c0.7-1.4,1.6-2.8,2.5-4c2.5-3.5,5.4-7,9.1-9.1c6-3.3,11.9,0,16.3,4.4
		c0,0,3,1.9,2.8,3l-0.7-0.7l0.7,1.4l0.2,0.2c-0.5-1.4,1.6,1.2,1.6,1.2c0.9,1.4,1.4,3,1.8,4.5c0.5,2.5,0.3,5.1,0,7.5
		c-0.7,6.5-2.6,13.1-4.6,19.4c5.3-0.9,10.5-2.1,15.6-3.2c1.2-0.3,2.5-1.2,3.3,0c0.2,0.4,0,0.2,0,0.2
		C186.6,152.2,166.2,153.6,164.2,153.9z M147.8,154.4c-7.7-1-17.1-4.4-19.1-13.1c-1.2,1.4-3.7,5.6-6.3,10.8l1-1.6
		c-0.4,1.8-17.2,32.6-2.6,30.5h0.2C133.3,178.8,142.7,164.6,147.8,154.4z M156.2,115.1c-3.5-5.4-10,2.4-12.6,6
		c-0.2,0-0.2,0.2-0.2,0.2l-0.2,0.4v-0.2c-0.2,0.4-0.4,0.5-0.2,0.5c-0.9,1.2-1.9,2.3-3,4.2c0.2-0.2,2.1-3.3,2.3-2.8
		c0.5,1-2.8,6.7-3.3,7.7c-1,2.8-1.9,5.6-2.3,8.6s-0.7,6.3,1.8,8.4c1.4,1.2,3.7,1.6,5.6,1.8c1,0.2,3.3,0.5,4.4,0.2
		c1.8-0.4,1.2,0.2,2.1-1.6c2.6-4.4,3.7-10.8,4.9-15.8C156.4,128.2,158.8,119.6,156.2,115.1z M143.6,121l-0.2,0.2
		C143.4,121.2,143.6,121.2,143.6,121z"/>
	<path fill="#FFFFFF" d="M261,147.3c0.7-0.2-4,9.6-4.7,10.5c-2.6,4.2-5.4,8.4-8.2,12.4c-5.1,7.7-9.8,16.6-16.5,23.1
		c-2.5,2.3-4.2,3.5-7.5,3.3c-4-0.2-6.7-1.9-9.3-4.5c-0.5-0.5-5.3-4.5-4.7-5.8l1.1,1.6c-0.5-0.9-0.9-1.8-1.2-2.8v0.7
		c-0.5,0.5-1.9-5.8-1.9-6.5c-0.2-2.6,0.4-5.3,0.9-7.9c1.2-4.2,2.5-8.4,3.5-12.6c1.2-4.4,3.5-8.6,5.6-12.8c0.4-0.7,3.7-7.5,4.4-7.5
		c0,0.2-0.7,1.8-0.5,1.9l2.6-6l-0.5,0.5l5.1-12.2c-6.5,5.2-11.6,12.4-16.6,18.7c-2.4,3-4.7,6.7-7.7,9.1c-1.1,0.9-1.4,0.3-2.3,1.4
		c-0.7,0.9-1.2,2.1-1.8,3.2c-4,6.6-9.1,12.6-13.3,19.1l-3.1,5.6c-0.4,0.9-0.4,1.4-1,2.3c-2.3,2.5-6.3,1.6-8.2-0.9
		c-1.6-1.8-1.8-4.2-1.8-6.3c-0.7-7.7,1.1-15.9,2.5-23.5c3-16.5,7-32.9,12.4-48.8c4.7-14.2,11.9-27,18.7-40.3c0-0.2,0.9-3.8,1.8-4.4
		c-0.2,0.2-1.2,3.3-1.2,3.3l2.1-4c0,0-0.2,0-0.4-0.2c0-3.1,3.9-7.9,5.6-10.5c2.4-4,5.1-7.9,7.9-11.7c4.9-6.8,9.6-14.4,16.3-19.4
		c3.5-2.6,7.7-5.1,12.3-4.7c2.3,0,4.6,0.9,6.1,2.4c0.7,0.7,3.9,6.1,2.8,6.8c0,0-0.9-2.6-1.1-2.6c1.1,2.8,1.2,6,1.1,8.8
		c0.2-0.3,0.2-0.5,0.4-0.5c0.9,0-3,16.1-3.3,17.5c-1.8,6.1-4.2,12.1-6.8,17.9c-6,12.3-13.1,25.4-22.1,35.9c-1.8,1.9-4,3.3-5.6,4.9
		c-1.8,1.9-3,4.4-4.7,6.5c-4.6,5.3-9.5,10.1-14.5,14.7c-3,2.8-4,4.4-5.4,8.2c-1.2,3.7-2.3,7.3-3.5,10.8c-2.3,7-4.4,14-6.3,21.2
		c3-4.5,6.1-8.9,9.5-13.3c-2.3,2.6-3.9,4.5-3.9,4.5c-0.4-0.2,21.7-27.1,24-29.6c5.3-5.6,14.9-17.7,22.6-8.2c4.4,5.4,1,11.9-1.6,17.2
		c-4.5,9.6-10.1,20.8-13,30.6c0.2-0.2,1.1-2.8,1.6-2.4c1,1-2.1,9.3-2.5,10.8c-0.2,1.2-1.4,6.8,0,7.7c2.3,1.6,6.3-3.2,7.9-4.6
		c6.3-6.1,12.1-13,17.9-19.6c2.1-2.6,4.2-5.4,6.6-7.9c0.5-0.5,1.8-2.3,2.6-2.3C260.1,146.2,262.1,147.1,261,147.3z M200.5,114.7
		c-0.2,0.9-0.9,3.7-0.5,3.7c-0.5-0.2,6.5-18.6,7.2-20.3c1.4-3.7,3.5-6.8,4.7-10.7c1.4-4,3.1-7.5,5.1-11.2c2.3-4.9,23.8-46,22.4-46.9
		c-0.4-0.2-17.2,31.9-18.7,35.4c-3.5,7.4-8.1,14.4-10.9,22.1c-3.1,9.1-7.5,18-9.1,27.5L200.5,114.7z M200.5,114.7
		c0,0,0.2-0.2,0.2-0.4C200.6,114.5,200.5,114.5,200.5,114.7z M244.4,28.6c-6.3,10-11.7,20.8-17.2,31.3c-4.9,9.6-10.3,19.6-14.5,29.2
		c0.5-0.9,1.1-1.8,1.4-1.9c0,0-3.7,10.3-4.2,11.4l-5.3,13.8c12.6-13.3,23.5-28.2,32.4-43.9c-3.5,5.8-7.2,11.6-11,16.8l-7,9.8
		l-3.1,3.2l1.4-1.6c1.8-2.1,3.3-4.2,4.9-6.3c3-4.2,6-8.6,8.8-13c5.8-9.1,11-18.4,15.2-28.2c2.1-5.1,4.2-10.3,5.6-15.8
		c0.7-2.6,3-10,0.5-12.1c-2.5-2.1-6,4.2-7.4,6.3c0.2-0.2,0,0.2-0.2,0.5v-0.2c0,0.2-0.2,0.2-0.2,0.2v0.2
		C244.6,28.6,244.4,28.6,244.4,28.6z M213.9,100.4c-0.5,0.5-0.9,1.2-1.2,1.6C213.1,101.4,213.4,100.9,213.9,100.4z M244.7,28.3h-0.2
		v0.2L244.7,28.3z"/>
	<path fill="#FFFFFF" d="M316.3,160.6c-3.8,4.9-7.4,10.2-11.5,14.7c-3.2,3.3-8.4,8.9-13.3,7.4c-1.1-0.3-7.5-3.8-7.4-4.7l0.5,0.3
		l-1-1.1c0.9,1.4-1.1-0.3-1.2-0.3c-0.9-0.9-1.6-2.3-2.1-3.3c-0.9-1.9-1.1-3.8-1.1-5.8c0-1.9,0.4-3.9,0.5-5.8c0.3-4,0.5-7.5,1.8-11.4
		c0.3-0.9,4-10.7,5.3-10.3c0.4,0-0.5,1.2-0.4,1.4l2.5-4.9c-0.4,0.4-0.5,0.7-0.9,0.9c-0.2-0.2,2.1-4.2,2.6-5.1
		c-3.5,4-6.3,8.2-9.5,12.4c-2.3,3-5.1,4.9-6.7,7.7c-3.7,6.3-8.2,12.1-11.2,18.6l-0.7-1.4c-3.2,3.8-7.9-0.7-9.6-3.7
		c-1.6-2.8-1-4.9-0.7-8c0.4-2.8,0.2-5.6,1-8.6c1.1-3.7,2.5-7.2,3.9-10.8c1.2-3.7,2.5-7.3,3.9-11c0.9-2.3,2.6-5.1,3.1-7.5
		c0.5-1.9,0-3.2,2.3-4.6c2.1-1.2,4.4-1,6.6-0.7c2.8,0.5,7.9,3.5,4.9,7.9c-1.2,1.6-3.3,3.3-4.7,5.1c-1.6,1.9-1.4,2.8-2.1,5.1
		c-0.4,1.4-1.8,2.6-2.5,4c-1,1.9-1.8,4.4-2.5,6.7c-0.3,1.4-0.2,2.4-0.3,3.8c-0.4,3.7-1.6,7.3-1.9,11c0.2-0.7,1.4-1.9,1.6-1.8
		c0.2,0.2-1.8,3.2-1.6,3.2l10.3-15.1c-2.3,3-4,5.1-4,5.1c-0.5-0.4,20.3-27,22.8-29.2c5.1-4.7,11.6-4.6,14,3.7
		c2.8,8.8-6.3,14.5-10.5,20.8c-2.3,3.5-4.2,7.7-6,11.4c-1.2,2.3-3.9,7.4-4.2,11.2c0.4-2.6,2.3-5.8,3-7.5c1.4-3.7,3.3-6.7,6.1-9.3
		c-1.2,2.3-2.6,4.4-3.7,6.5l0.9-1c0.3,0-1.6,5.9-1.8,6.3c-0.7,2.1-1.4,4.4-1.6,6.7c-0.2,0.2,0,3,0,3l0.2,0.2c0-0.2,1.2-0.3,1.6-0.5
		c2.6-0.9,5.3-3.3,7.4-5.1c4.2-3.3,8.2-7,12.3-10.5c3-2.8,6.8-5.6,9.3-8.6c1-1.6,3.5-4.4,4.4-0.2
		C325.1,151.8,318.4,157.8,316.3,160.6z"/>
	<path fill="#FFFFFF" d="M484.3,78.7c-0.2,4.4-1.6,8.8-1.4,13c0,0.4,0.7,1.9,0.7,3c-0.2,1.8-0.5,3.9-0.9,5.6
		c-0.9,4.6-2.1,8.9-3.5,13.3c-2.6,9.1-6,17.7-9.8,26.4c-1.4,3.2-3.8,6.3-4.7,9.6c-0.5,1.9-0.7,4-1.6,6.1
		c-3.9,8.4-8.8,16.8-14.2,24.3c-6.8,9.6-18.4,23.8-31.9,21.5c-13.3-2.3-20.6-15.2-20.6-27.7c3.1,6.8,9.4,20.8,18.9,18.5
		c8.2-2.1,13.7-13.3,17.5-19.8c4.5-8,8.9-16.5,12.8-25c5.9-13.3,10.5-27.7,15.4-41.7c3-8.6,5.4-17.3,7.4-26.1
		c0.5-2.5,3.8-14.5,0.3-15.8c-2.8-1.1-8.9,6.5-10.3,8c-6.3,6.8-12.1,14.2-17.8,21.5c-9.3,11.7-16.6,24.9-24.5,37.5
		c-9.5,15.6-17.8,31.9-24.7,48.7c-3.3,8.2-5.6,15.4-6.7,24.2c-0.4,1.6,0,4.5-1.4,6.1c-3.3,4.4-11.7,1-14.2-2.5
		c-3.5-5.1-0.4-15.1,0.5-20.7c1.2-8.8,2.3-17.5,4.7-26.1c0.9-3.1,2.3-5.9,3.5-8.9c0.2-0.5,1-6.3,1.6-6.5c0,0.2,0,0.5,0.2,0.7v-0.9
		c-0.3,0.2,0.3-3.5,0.3-3.7c0.5-2.4,1.4-4.7,2.3-7c1.2-3.5,2.1-6.8,2.8-10.5c0.2-1.2,5.3-17.2,6.8-16.8c0.4,0.2-0.3,1.4-0.2,1.6
		c0.7-1.6,1-3.3,1.8-4.9l-0.5,0.7c-0.5-0.2,8.9-22.4,9.8-24.2c1.6-4,3.1-8.1,5.4-11.7c1.4-2.5,3.3-3.7,4.4-5.8
		c1.9-3.7,5.1-8.2,9.8-7.5c3.1,0.5,6.5,4,7.7,7c0.9,2.5,0.2,3.3-0.9,4.9l0.7-0.5c0.5,0.2-3.1,7.4-3.8,7.2c-0.2,0,0.5-1.8,1-2.8
		c-5.1,9.8-10,20-14.5,30.1c2.5-5.1,7.7-16.3,9.5-19.1c-2.6,4.5-14.2,31.9-14.3,32.6c-6,15.1-10.3,31-15.6,46.4
		c11-24.5,25.6-47.8,41.5-69.3c7.5-10.1,15.4-20.1,24-29.1c3.5-3.7,10.3-12.3,15.9-12.3c7.3,0,9.6,9.5,10.3,15.2
		C484.3,70.1,484.5,74.5,484.3,78.7z M392.1,131.5c-1.4,0.5-1.8,4-2.4,5.1c-0.9,1.4-1.8,2.1-1.9,3.8c-0.2,0.9-0.5,2.3-0.5,3.3
		c0.3-1.4,2.3-3.5,2.8-4.5c0.7-2.3,0.2-4.9,1.6-7.2L392.1,131.5z M389.1,130.5c1-1.2,1.6-4.9,2.1-6.6c1.1-2.8,1.9-5.6,3.2-8.4
		c2.1-5.1,4.4-10,6.8-15.1c1.9-3.9,3.5-7.7,5.3-11.6c0.7-1.8,1.8-3.3,2.5-4.9c0.5-1,0.7-2.8,1-3.7c-3.8,6.5-7,13.3-10.3,20
		c-2.6,5.1-4.5,10-6.5,15.2c-1.6,4-3.7,8.6-4.2,12.8C388.9,128.2,388.8,130.8,389.1,130.5z M409.9,107.4l-4.5,11.2l2.8-6.7v-0.2
		C408.9,110.3,409.4,108.9,409.9,107.4z M412,77.4c0.9-0.9,1-1.2,0.3-1.6C411.7,76.6,411.7,77.1,412,77.4z M444.1,160.7
		c0.7-1.1,6.6-14,6.6-14.2c-0.2,0-0.9,1.4-1.8,3.2v0.2c-0.5,0.9-0.9,1.9-1.2,2.8l0.2-0.9l-1,2.5c-0.5,1.4-1,2.8-1.8,4.2l1.4-3.3
		c-2.3,4.9-4.9,9.8-7.7,14.7c-3.3,6-7,12.1-11.2,17.5c-1.8,2.1-3.9,4.7-6.3,6c-0.2,0.2-3.8,0.9-3.7,1.4c1.6,3.7,12.6-10.3,13.1-11
		c3.9-5.6,7.5-11.9,10.9-18c0-0.2,0-0.4,0.2-0.4l0.9-1.8c0.4-0.9,0.9-1.8,1.4-2.6V160.7z M438.1,172.5c-2.3,4.2-4.7,8.1-7.2,11.7
		C433.6,180.7,435.8,176.8,438.1,172.5z M439.3,170.2c0.2-0.3,0.4-0.5,0.4-0.9L439.3,170.2z M446.9,154.3c0.2-0.2,0.2-0.2,0.2-0.4
		C447,154.1,446.9,154.1,446.9,154.3z M456.8,142c-2.6,6.3-6.3,12.1-8.4,18.4c0.9-2.8,3.3-5.4,4.7-8c1.6-3.2,2.8-6.7,3.7-10.2V142z"
		/>
	<path fill="#FFFFFF" d="M540.6,153.9c-0.3,0-2.6,0.7-2.5,0.5c-1.8,0.7-1.4,0.5-2.6,2.1c-1.4,2.1-2.6,4.4-3.8,6.5
		c-0.7,0.7-7,10-8.2,9.5c0,0,1.4-1.8,1.2-1.9l-5.1,6c0.5-0.5,0.9-0.7,0.9-0.5c-1,3-6.8,6.5-9.5,8.4c-2.8,2.1-6.3,4-10,4.5
		c-3.5,0.4-7.3-0.4-10.7-1.9c-10.3-5.1-16.5-19.1-10.9-29.8c3-5.6,5.1-11.9,9.3-17.5c2.5-3,5.1-6,8.4-8c1.4-1.1,3-1.9,4.7-2.6
		c1.2-0.7,3.9-0.9,4.7-1.6c1-0.7,2.1-5.3,2.8-6.7s1.6-2.8,2.5-4c2.5-3.5,5.4-7,9.1-9.1c5.9-3.3,11.9,0,16.3,4.4c0,0,3,1.9,2.8,3
		l-0.7-0.7l0.7,1.4l0.2,0.2c-0.5-1.4,1.6,1.2,1.6,1.2c0.9,1.4,1.4,3,1.8,4.5c0.5,2.5,0.3,5.1,0,7.5c-0.7,6.5-2.6,13.1-4.5,19.4
		c5.3-0.9,10.5-2.1,15.6-3.2c1.2-0.3,2.4-1.2,3.3,0c0.2,0.4,0,0.2,0,0.2C563,152.2,542.6,153.6,540.6,153.9z M524.2,154.4
		c-7.7-1-17.2-4.4-19.1-13.1c-1.2,1.4-3.7,5.6-6.3,10.8l1-1.6c-0.3,1.8-17.2,32.6-2.6,30.5h0.2C509.7,178.8,519.1,164.6,524.2,154.4
		z M532.6,115.1c-3.5-5.4-10,2.4-12.6,6c-0.2,0-0.2,0.2-0.2,0.2l-0.2,0.4v-0.2c-0.2,0.4-0.3,0.5-0.2,0.5c-0.9,1.2-1.9,2.3-3,4.2
		c0.2-0.2,2.1-3.3,2.3-2.8c0.5,1-2.8,6.7-3.3,7.7c-1,2.8-1.9,5.6-2.3,8.6c-0.3,3-0.7,6.3,1.8,8.4c1.4,1.2,3.7,1.6,5.6,1.8
		c1,0.2,3.3,0.5,4.4,0.2c1.8-0.4,1.2,0.2,2.1-1.6c2.6-4.4,3.7-10.8,4.9-15.8C532.8,128.2,535.2,119.6,532.6,115.1z M520,121
		l-0.2,0.2C519.8,121.2,520,121.2,520,121z"/>
	<path fill="#FFFFFF" d="M615.7,149.4l-5.4,7.2l-9.5,12.3c-2.5,3.2-5.4,6.1-7.9,9.3c-2.6,3.5-4.9,7.2-7.9,10.5
		c-3.1,3.3-6.8,6.8-11,9.1c-3,1.6-5.8,1.8-8.9,0.9c-4.5-1.2-8.6-4-11.5-7.5c-0.9-1.1-1.8-1.9-1.9-3.3c-0.2-1-0.4-2.3-0.4-3.5
		c-0.2-2.1,0.5-3.7,0.9-5.8c0.4-2.3,1.4-4.4,1.8-6.7c0.4-2.5,1-4.7,1.4-7c0.2-2.1-0.2-4.4,0.3-6.5c0.4-1.4,1.4-2.8,1.9-4.4
		c-0.5,1.1-1.4,2.1-1.6,3c-0.5,1.4-0.9,2.8-1.4,4c-0.5,1.4-0.7,2.6-1.2,4c-0.7,1.6-1.4,3-1.6,4.7c-0.2,1.6,0,3.1-0.2,4.7
		c-0.4,1.6-0.7,2.8-0.7,4.4c0,0.5,0.3,1.6,0.3,1.9c0,0.7-0.3,1.6-0.3,2.5c0,1.6,0.3,3.1,0.5,4.9c-2.8-4.9-2.3-9.8-1.4-15
		s1.6-10.3,2.8-15.4c2.3-10.3,7-20.5,13.7-28.7c5.4-7.2,12.6-12.6,22.1-10.8c3.5,0.7,7.3,2.3,9.6,5.3c2.5,3.3,2.3,7.5,1,11.4
		c-2.3,6.8-8,12.3-13.5,16.8c-2.3,1.9-4.7,3.8-7.3,5.4c-1.8,1-3.7,1.8-5.6,2.5l-3,1c-1.2,0.4-1.4,0.2-1.9,1.2
		c-0.9,1.8-0.4,3.5-0.7,5.3c-0.4,2.3-0.9,4.4-1.4,6.6c-0.9,4.2-2.3,9.6-1.2,14c1.9,8.9,16.6-4.9,19.3-7.4c1.8-1.6,3.3-3.3,4.9-4.9
		c0.9-1,1.9-1.9,2.6-3c0,0,0.3-0.9,0.3-1.2c2.1-3.3,4.9-6.5,7.5-9.6c3.2-3.7,6-7.5,8.9-11.5c1.6-2.3,5.3-8.8,8.1-4v0.2
		c0.2,0.2,0.2,0.2,0.2,0C617.1,147.4,616.6,148.3,615.7,149.4z M570.7,153.6c5.6-3,10.7-7,14.7-11.7l3-3.9c0.5-0.9,1.4-1.4,1.8-2.5
		c0.2-0.9-0.2-1.6,0-2.6l0.7-3.7c0.2-1.8-0.5-6.3-3.2-5.8c-1.2,0.4-2.4,1.9-3.1,2.8l-3.2,4.2c-3.7,5.4-5.6,11.4-8.2,17
		c0,0,0,0.2-0.2,0.5C572.1,149.7,571.6,151.6,570.7,153.6z"/>
</g>
</svg>
