<?xml version="1.0" encoding="utf-8"?>
<!-- Generator: Adobe Illustrator 17.1.0, SVG Export Plug-In . SVG Version: 6.00 Build 0)  -->
<!DOCTYPE svg PUBLIC "-//W3C//DTD SVG 1.1//EN" "http://www.w3.org/Graphics/SVG/1.1/DTD/svg11.dtd">
<svg version="1.1" id="Layer_1" xmlns="http://www.w3.org/2000/svg" xmlns:xlink="http://www.w3.org/1999/xlink" x="0px" y="0px"
	 viewBox="0 0 620 250" enable-background="new 0 0 620 250" xml:space="preserve">
<path fill="#333F49" d="M609.9,37.4H148.7c-0.6,0-1,0.2-1.4,0.7c-0.4,0.4-0.6,1-0.6,1.6v170.5c0,0.6,0.2,1.1,0.6,1.6
	c0.4,0.4,1,0.7,1.4,0.7h461.3v9.2H148.7c-0.6,0-1,0.2-1.4,0.7c-0.4,0.4-0.6,1-0.6,1.6v21.7H138v-21.7c0-0.6-0.2-1.1-0.6-1.6
	c-0.4-0.4-1-0.7-1.4-0.7H10v-9.2h125.9c0.6,0,1-0.2,1.4-0.7c0.4-0.4,0.6-1,0.6-1.6V39.6c0-0.6-0.2-1.1-0.6-1.6
	c-0.4-0.4-1-0.7-1.4-0.7H10v-9.2h125.9c0.6,0,1-0.2,1.4-0.7c0.4-0.4,0.6-1,0.6-1.6V4.2h8.6v21.7c0,0.6,0.2,1.1,0.6,1.6
	c0.4,0.4,1,0.7,1.4,0.7H610L609.9,37.4L609.9,37.4z M494.7,157.1c3-4.2,4.5-10.3,4.5-18.2v-28.7c0-7.8-1.5-13.8-4.5-17.9
	c-3-4.1-7.9-6.1-14.8-6.1c-6.8,0-11.8,2.1-14.8,6.1c-3,4.1-4.5,10.1-4.5,17.9V139c0,3.9,0.3,7.3,1,10.2c0.7,3,1.7,5.5,3.2,7.7
	c1.5,2.2,3.4,3.8,5.9,5c2.6,1.1,5.6,1.7,9,1.7C486.7,163.5,491.7,161.4,494.7,157.1z M484.7,95.3c1.3,0.6,2.2,1.5,2.9,2.8
	c0.6,1.3,1.1,2.7,1.3,4.2c0.3,1.5,0.3,3.3,0.3,5.7v33.1c0,2.4-0.1,4.3-0.3,5.8c-0.3,1.6-0.7,3-1.3,4.3c-0.6,1.3-1.6,2.3-2.9,3
	c-1.2,0.7-2.9,1-4.8,1c-1.9,0-3.5-0.3-4.8-1c-1.3-0.7-2.2-1.6-2.9-3c-0.6-1.3-1.1-2.7-1.3-4.3c-0.3-1.6-0.3-3.5-0.3-5.8v-33.1
	c0-2.3,0.1-4.2,0.3-5.7s0.7-3,1.3-4.2c0.6-1.3,1.6-2.2,2.9-2.8c1.2-0.6,2.9-0.9,4.8-0.9C481.8,94.5,483.5,94.7,484.7,95.3z
	 M555.2,162.7l-9.9-37c-0.1-0.4,0.1-1,0.6-1.3c5.2-2.3,7.9-8.1,7.9-17.4c0-7-1.7-12.2-5-15.4c-3.3-3.2-8.6-4.7-15.7-4.7H519v75.7
	h9.9v-34.5c0-0.6,0.4-1,1-1h5.9c0.4,0,0.8,0.3,1,0.7l9.1,34.7L555.2,162.7L555.2,162.7z M533.2,94.6c4.3,0,7.4,1,8.9,2.7
	c1.6,1.8,2.4,5.1,2.4,9.7c0,4.7-1,8.1-2.8,9.8c-1.8,1.8-4.9,2.7-9.2,2.7h-2.8c-0.6,0-1-0.4-1-1v-23c0-0.6,0.4-1,1-1L533.2,94.6
	L533.2,94.6z M440.5,162.7V87h-9.7v75.7L440.5,162.7L440.5,162.7z M411.4,162.7l-9.9-37c-0.1-0.4,0.1-1,0.6-1.3
	c5.2-2.3,7.9-8.1,7.9-17.4c0-7-1.7-12.2-5-15.4c-3.3-3.2-8.6-4.7-15.7-4.7h-14.1v75.7h9.9v-34.5c0-0.6,0.4-1,1-1h5.9
	c0.4,0,0.8,0.3,1,0.7l9.1,34.7L411.4,162.7L411.4,162.7z M389.2,94.6c4.3,0,7.4,1,9,2.7c1.6,1.8,2.4,5.1,2.4,9.7
	c0,4.7-1,8.1-2.8,9.8c-1.8,1.8-4.9,2.7-9.2,2.7h-2.8c-0.6,0-1-0.4-1-1v-23c0-0.6,0.4-1,1-1L389.2,94.6L389.2,94.6z M357.1,162.7
	v-7.5h-16.7c-0.6,0-1-0.4-1-1v-25.7c0-0.6,0.4-1,1-1h13.2v-7.5h-13.2c-0.6,0-1-0.4-1-1v-23c0-0.6,0.4-1,1-1h16.5V87h-27.3v75.6h27.5
	V162.7z M301.7,162.7V95.9c0-0.6,0.4-1,1-1h11.4V87H279v7.8h11.9c0.6,0,1,0.4,1,1v66.8H301.7z M207.1,162.7V87h-9.7v75.7
	L207.1,162.7L207.1,162.7z M257.3,162.7L238.1,114c-0.1-0.3-0.3-0.4-0.6-0.4c-0.1,0-0.1,0-0.1,0c-0.3,0.1-0.5,0.3-0.5,0.7v48.4h-8.3
	V87h6.7l18.9,47.3c0.1,0.3,0.3,0.4,0.6,0.4c0.1,0,0.1,0,0.1,0c0.3-0.1,0.5-0.3,0.5-0.7v-47h8.2v75.6H257.3z M99,162.7h-9.1L83.2,141
	c-0.1-0.4-0.5-0.7-0.9-0.7H65.8c-0.4,0-0.8,0.3-0.9,0.7l-6.7,21.7h-9.1l25-80.4L99,162.7z M80.1,131.4L74.4,113
	c-0.1-0.2-0.3-0.3-0.4-0.3s-0.4,0.1-0.4,0.3l-5.7,18.4c-0.1,0.3-0.1,0.7,0.1,0.9c0.2,0.3,0.5,0.4,0.8,0.4h10.5
	c0.3,0,0.6-0.1,0.8-0.4C80.2,132.1,80.3,131.7,80.1,131.4z"/>
</svg>
